Units are S.I. units (second, meters, Newtons, ...)
Angles are in degrees.
name walk
datarows 71
datacolumns 18
range 3.780000 4.480000
endheader
time root_joint_q1 root_joint_q2 root_joint_q3 root_joint_q4 root_joint_q5 root_joint_q6 root_joint_q7 exo_ha_l_q exo_hip_l exo_knee_l l_ankle_coupling l_foot exo_ha_r_q exo_hip_r exo_knee_r r_ankle_coupling r_foot
3.780000	1.473946	0.871041	0.004340	0.004097	0.008686	0.002219	0.999951	-0.007192	0.488146	-1.035749	0.564961	-0.016018	0.133141	0.003879	-0.782132	0.784238	-0.127326
3.790000	1.476612	0.871089	0.009040	0.005069	0.010183	0.001286	0.999934	0.000580	0.486768	-1.036017	0.569576	-0.009917	0.125474	0.006567	-0.791598	0.793595	-0.121193
3.800000	1.482625	0.871068	0.010340	0.006600	0.011933	-0.000216	0.999907	0.012862	0.479899	-1.035358	0.579267	-0.000259	0.112963	0.004090	-0.799785	0.807206	-0.111166
3.810000	1.493111	0.871817	0.010340	0.009271	0.014241	-0.002442	0.999853	0.031563	0.463809	-1.027381	0.592023	0.013740	0.093403	-0.006502	-0.801091	0.823026	-0.096156
3.820000	1.499439	0.871514	0.019340	-0.001620	0.002012	-0.002956	0.999992	0.015453	0.422888	-1.018225	0.599312	0.019645	0.102950	-0.013562	-0.819577	0.830171	-0.085294
3.830000	1.506067	0.873008	0.020340	-0.002389	0.000882	-0.004184	0.999988	0.022031	0.403531	-1.003707	0.601933	0.028130	0.090870	0.001785	-0.837019	0.834582	-0.074632
3.840000	1.512640	0.874358	0.018340	-0.001948	0.000748	-0.005249	0.999984	0.029880	0.386829	-0.989710	0.604429	0.035419	0.081007	0.017076	-0.855038	0.838386	-0.065589
3.850000	1.519160	0.875582	0.032340	-0.001676	0.000529	-0.006118	0.999980	0.036117	0.370508	-0.976547	0.607209	0.041375	0.073862	0.030604	-0.873033	0.842510	-0.058364
3.860000	1.525645	0.876713	0.033377	-0.001603	0.000247	-0.006831	0.999975	0.040948	0.354529	-0.964156	0.610292	0.046279	0.068519	0.043193	-0.890676	0.846916	-0.052689
3.870000	1.532155	0.877723	0.025153	-0.001634	-0.000045	-0.007420	0.999971	0.044765	0.338904	-0.952594	0.613822	0.050339	0.064599	0.055389	-0.907846	0.851383	-0.048334
3.880000	1.538803	0.878574	0.038416	-0.001678	-0.000297	-0.007906	0.999967	0.047870	0.323592	-0.941968	0.618051	0.053687	0.061978	0.067374	-0.924384	0.855818	-0.045113
3.890000	1.545758	0.879275	0.040211	-0.001681	-0.000405	-0.008307	0.999964	0.050445	0.308557	-0.932335	0.623279	0.056395	0.060466	0.079074	-0.939959	0.860407	-0.042704
3.900000	1.553199	0.879859	0.031511	-0.002335	-0.000775	-0.008584	0.999960	0.050981	0.292734	-0.923990	0.630037	0.058329	0.060265	0.089066	-0.954171	0.865756	-0.040451
3.910000	1.561350	0.879513	0.041773	-0.007687	-0.005366	-0.008342	0.999921	0.040223	0.268682	-0.920851	0.641664	0.058208	0.067373	0.087665	-0.967485	0.872676	-0.037402
3.920000	1.570441	0.871187	0.040311	-0.021027	-0.023835	-0.007122	0.999469	0.010941	0.224096	-0.946208	0.674362	0.055190	0.093919	0.051226	-0.985367	0.876997	-0.033387
3.930000	1.584772	0.901371	0.036457	0.026941	0.052432	-0.010879	0.998202	0.125408	0.336599	-0.855083	0.624253	0.075617	-0.036242	0.180215	-0.963444	0.899880	-0.035236
3.940000	1.591825	0.888098	0.037022	-0.004706	-0.000268	-0.000723	0.999989	0.049364	0.217162	-0.868158	0.648910	0.058639	0.088510	0.077161	-0.992540	0.901564	-0.049697
3.950000	1.599046	0.889671	0.036350	-0.003775	-0.001159	-0.000363	0.999992	0.052003	0.195398	-0.846710	0.646946	0.057474	0.079500	0.105152	-1.009502	0.901730	-0.055631
3.960000	1.606118	0.890730	0.035916	-0.002461	-0.000946	-0.000121	0.999997	0.055810	0.178199	-0.830416	0.647784	0.056734	0.072123	0.125707	-1.026639	0.900659	-0.056025
3.970000	1.612838	0.891624	0.035718	-0.001190	-0.000222	0.000043	0.999999	0.059853	0.163576	-0.816570	0.649523	0.056330	0.067376	0.141901	-1.042492	0.900413	-0.055149
3.980000	1.618592	0.892458	0.035639	-0.000773	-0.000177	0.000239	1.000000	0.062230	0.149373	-0.803694	0.650450	0.055969	0.065379	0.156811	-1.057558	0.899992	-0.054175
3.990000	1.623525	0.893289	0.035783	-0.000675	-0.000285	0.000405	1.000000	0.064233	0.136399	-0.791557	0.650585	0.055882	0.064256	0.171617	-1.071618	0.898894	-0.053285
4.000000	1.627749	0.894103	0.036151	-0.000686	-0.000403	0.000530	1.000000	0.066311	0.124769	-0.780138	0.650077	0.056101	0.063431	0.186398	-1.084547	0.896878	-0.052444
4.010000	1.631320	0.894851	0.036709	-0.000749	-0.000566	0.000621	0.999999	0.068544	0.114366	-0.769559	0.649097	0.056592	0.062700	0.200942	-1.096184	0.893803	-0.051571
4.020000	1.634760	0.895489	0.037427	-0.000868	-0.000739	0.000681	0.999999	0.070891	0.104384	-0.759637	0.648338	0.057316	0.061934	0.215277	-1.106422	0.889553	-0.050574
4.030000	1.638507	0.895948	0.038289	-0.000997	-0.000864	0.000708	0.999999	0.073432	0.094244	-0.750300	0.648425	0.058264	0.060957	0.229365	-1.115056	0.884018	-0.049378
4.040000	1.642667	0.896165	0.039293	-0.001016	-0.000871	0.000693	0.999999	0.076429	0.083978	-0.741684	0.649598	0.059459	0.059469	0.243078	-1.121723	0.877071	-0.047944
4.050000	1.647205	0.896131	0.040409	-0.000926	-0.000789	0.000643	0.999999	0.079844	0.073582	-0.733796	0.651814	0.060862	0.057501	0.256268	-1.126382	0.868761	-0.046287
4.060000	1.652040	0.895884	0.041586	-0.000827	-0.000703	0.000578	0.999999	0.083391	0.062948	-0.726497	0.654868	0.062382	0.055358	0.268821	-1.129316	0.859299	-0.044462
4.070000	1.657116	0.895463	0.042797	-0.000742	-0.000617	0.000502	0.999999	0.086984	0.052109	-0.719649	0.658583	0.063979	0.053151	0.280779	-1.130726	0.848840	-0.042527
4.080000	1.662376	0.894904	0.044031	-0.000669	-0.000508	0.000416	1.000000	0.090608	0.041154	-0.713141	0.662802	0.065633	0.050925	0.292253	-1.130762	0.837480	-0.040531
4.090000	1.667683	0.894249	0.045276	-0.000614	-0.000379	0.000324	1.000000	0.094231	0.030269	-0.706915	0.667276	0.067324	0.048726	0.303358	-1.129551	0.825254	-0.038512
4.100000	1.672641	0.893552	0.046523	-0.000560	-0.000275	0.000232	1.000000	0.097873	0.020043	-0.701162	0.671518	0.069034	0.046509	0.314030	-1.127132	0.812166	-0.036493
4.110000	1.677242	0.892843	0.047756	-0.000534	-0.000224	0.000147	1.000000	0.101445	0.010382	-0.695756	0.675436	0.070732	0.044401	0.324564	-1.123670	0.798148	-0.034517
4.120000	1.681506	0.892135	0.048966	-0.000527	-0.000214	0.000071	1.000000	0.104956	0.001261	-0.690643	0.679025	0.072405	0.042426	0.335116	-1.119262	0.783178	-0.032616
4.130000	1.685471	0.891441	0.050152	-0.000521	-0.000206	-0.000001	1.000000	0.108438	-0.007298	-0.685807	0.682327	0.074049	0.040537	0.345686	-1.113946	0.767301	-0.030797
4.140000	1.689157	0.890770	0.051304	-0.000513	-0.000190	-0.000066	1.000000	0.111881	-0.015308	-0.681241	0.685366	0.075649	0.038724	0.356266	-1.107762	0.750564	-0.029068
4.150000	1.692570	0.890129	0.052405	-0.000502	-0.000165	-0.000121	1.000000	0.115262	-0.022780	-0.676940	0.688147	0.077176	0.036992	0.366853	-1.100751	0.733008	-0.027441
4.160000	1.695705	0.889527	0.053432	-0.000483	-0.000140	-0.000159	1.000000	0.118552	-0.029720	-0.672899	0.690657	0.078593	0.035352	0.377450	-1.092956	0.714668	-0.025942
4.170000	1.698544	0.888973	0.054353	-0.000451	-0.000131	-0.000173	1.000000	0.121713	-0.036137	-0.669115	0.692862	0.079849	0.033832	0.388052	-1.084432	0.695579	-0.024607
4.180000	1.701069	0.888467	0.055137	-0.000398	-0.000168	-0.000152	1.000000	0.124716	-0.042062	-0.665589	0.694737	0.080896	0.032469	0.398634	-1.075237	0.675785	-0.023483
4.190000	1.703314	0.887999	0.055784	-0.000306	-0.000249	-0.000095	1.000000	0.127600	-0.047561	-0.662285	0.696310	0.081738	0.031271	0.409174	-1.065427	0.655361	-0.022618
4.200000	1.705311	0.887540	0.056293	-0.000142	-0.000403	0.000000	1.000000	0.130433	-0.052745	-0.659184	0.697620	0.082377	0.030260	0.419595	-1.055065	0.634410	-0.022060
4.210000	1.707088	0.887034	0.056660	0.000145	-0.000679	0.000139	1.000000	0.133327	-0.057768	-0.656283	0.698713	0.082825	0.029443	0.429750	-1.044216	0.613069	-0.021829
4.220000	1.708673	0.886386	0.056887	0.000611	-0.001184	0.000334	0.999999	0.136422	-0.062886	-0.653620	0.699671	0.083108	0.028744	0.439348	-1.032940	0.591539	-0.021836
4.230000	1.710103	0.885432	0.056983	0.001215	-0.002203	0.000619	0.999997	0.139673	-0.068700	-0.651360	0.700684	0.083269	0.027892	0.447749	-1.021315	0.570113	-0.021785
4.240000	1.711442	0.883843	0.056946	0.001564	-0.004523	0.001103	0.999988	0.142327	-0.076776	-0.650029	0.702258	0.083341	0.026478	0.453252	-1.009581	0.549199	-0.021200
4.250000	1.712889	0.880990	0.056694	0.000770	-0.009773	0.002028	0.999950	0.142547	-0.090519	-0.650531	0.705405	0.083262	0.025166	0.450853	-0.999142	0.528965	-0.019889
4.260000	1.715095	0.882287	0.056635	0.000434	-0.006979	0.001892	0.999974	0.143148	-0.089660	-0.647879	0.707019	0.082624	0.026541	0.453729	-0.999068	0.531391	-0.020439
4.270000	1.715095	0.882287	0.056635	0.000434	-0.006979	0.001892	0.999974	0.143148	-0.089660	-0.647879	0.707019	0.082624	0.026541	0.453729	-0.999068	0.531391	-0.020439
4.280000	1.717348	0.881012	0.057742	0.000329	-0.004783	0.001529	0.999987	0.146511	-0.084819	-0.660366	0.718673	0.084368	0.025925	0.461563	-1.014130	0.542789	-0.019395
4.290000	1.719677	0.879524	0.059051	0.000145	-0.002715	0.001123	0.999996	0.150070	-0.080285	-0.673236	0.730777	0.086480	0.025210	0.469245	-1.029805	0.554693	-0.018077
4.300000	1.722000	0.877887	0.060399	-0.000044	-0.000750	0.000701	0.999999	0.153729	-0.075924	-0.686348	0.743100	0.088707	0.024452	0.476827	-1.045809	0.566818	-0.016699
4.310000	1.724282	0.876145	0.061738	-0.000235	0.001125	0.000275	0.999999	0.157417	-0.071694	-0.699586	0.755503	0.090968	0.023707	0.484284	-1.061882	0.578956	-0.015329
4.320000	1.726495	0.874344	0.063029	-0.000430	0.002921	-0.000147	0.999996	0.161062	-0.067572	-0.712822	0.767861	0.093194	0.023031	0.491572	-1.077764	0.590917	-0.014017
4.330000	1.728620	0.872528	0.064259	-0.000648	0.004651	-0.000562	0.999989	0.164594	-0.063541	-0.725929	0.780050	0.095351	0.022482	0.498641	-1.093187	0.602503	-0.012789
4.340000	1.730638	0.870745	0.065416	-0.000915	0.006325	-0.000965	0.999979	0.167931	-0.059592	-0.738781	0.791955	0.097407	0.022131	0.505429	-1.107865	0.613515	-0.011661
4.350000	1.732543	0.869049	0.066476	-0.001266	0.007957	-0.001350	0.999967	0.170948	-0.055716	-0.751264	0.803477	0.099304	0.022086	0.511843	-1.121467	0.623742	-0.010676
4.360000	1.734342	0.867523	0.067240	-0.001678	0.009578	-0.001671	0.999951	0.173364	-0.051882	-0.763284	0.814537	0.100705	0.022577	0.517768	-1.133605	0.632974	-0.010120
4.370000	1.736030	0.866266	0.067455	-0.002114	0.011231	-0.001871	0.999933	0.174841	-0.047997	-0.774783	0.825048	0.101178	0.023874	0.523105	-1.143833	0.640950	-0.010354
4.380000	1.737573	0.865380	0.066958	-0.002572	0.012950	-0.001909	0.999911	0.175094	-0.043930	-0.785725	0.834894	0.100423	0.026202	0.527780	-1.151659	0.647327	-0.011620
4.390000	1.739146	0.864934	0.065516	-0.003097	0.014771	-0.001726	0.999885	0.173645	-0.039934	-0.795936	0.844199	0.098034	0.029983	0.531370	-1.156613	0.652129	-0.014264
4.400000	1.741583	0.864875	0.062634	-0.003830	0.016712	-0.001194	0.999852	0.169444	-0.037481	-0.804895	0.853911	0.093208	0.036203	0.532403	-1.158524	0.656709	-0.019029
4.410000	1.746467	0.864858	0.057884	-0.005166	0.018723	-0.000186	0.999811	0.161071	-0.039442	-0.812068	0.866228	0.085289	0.046308	0.528303	-1.157990	0.664151	-0.026601
4.420000	1.755766	0.863953	0.051015	-0.008040	0.020604	0.001416	0.999754	0.146338	-0.048726	-0.819881	0.886082	0.073942	0.062695	0.516020	-1.156820	0.678952	-0.037540
4.430000	1.761432	0.865461	0.045882	-0.001736	0.010880	0.001604	0.999938	0.122874	-0.048915	-0.825430	0.886715	0.090588	0.056940	0.476320	-1.133692	0.675927	-0.044515
4.440000	1.766658	0.865304	0.040805	0.001486	0.004461	0.002072	0.999987	0.093733	-0.034704	-0.838557	0.880368	0.082136	0.057846	0.448413	-1.120082	0.677263	-0.051984
4.450000	1.771801	0.866373	0.037248	0.002149	0.001377	0.002411	0.999994	0.075040	-0.015326	-0.854476	0.873672	0.069550	0.062006	0.426938	-1.103431	0.675784	-0.057499
4.460000	1.777019	0.868119	0.034778	0.001839	0.000101	0.002617	0.999995	0.063217	0.003995	-0.870998	0.868744	0.059102	0.066642	0.409158	-1.086087	0.673521	-0.061480
4.470000	1.782269	0.870157	0.033044	0.001366	-0.000348	0.002712	0.999995	0.055435	0.021854	-0.887329	0.865829	0.051524	0.070541	0.393389	-1.069164	0.671307	-0.064355
4.480000	1.787466	0.872274	0.031809	0.000989	-0.000474	0.002718	0.999996	0.050147	0.038385	-0.903342	0.864467	0.046229	0.073507	0.378763	-1.052949	0.669293	-0.066459
